<?xml version="1.0" encoding="UTF-8"?><svg id="Capa_2" xmlns="http://www.w3.org/2000/svg" viewBox="0 0 48 48"><defs><style>.cls-1{fill:none;}.cls-2{fill:#1f2560;}</style></defs><g id="Capa_1-2"><g><g id="Grupo_381" transform="translate(-1647.687 -2079.336)"><g id="Grupo_319" transform="translate(1647.687 2079.336)"><path id="Trazado_795" class="cls-2" d="M38.55,7.75c-.72,0-1.3,.58-1.3,1.3h0v24.45c0,.72,.58,1.3,1.3,1.3s1.3-.58,1.3-1.3V9.05c0-.72-.58-1.3-1.3-1.3h0Z"/><path id="Trazado_796" class="cls-2" d="M37.65,37.59H13.6c-.75-.08-1.3-.76-1.22-1.51,.07-.64,.58-1.15,1.22-1.22h20.04c.57,0,1.04-.47,1.04-1.04h0V7.37c0-.57-.47-1.04-1.04-1.04H12.31c-2.3,0-4.16,1.86-4.16,4.16h0v27.03c0,2.3,1.86,4.16,4.16,4.16h25.34c1.13,0,2.04-.93,2.03-2.06,0-1.12-.91-2.02-2.03-2.03h0Zm-14.25-19.05l-2.4-1.23c-1.37-.7-2.12-2.23-1.83-3.75,.23-1.34,1.25-2.42,2.58-2.71v-.37c.03-.72,.63-1.28,1.35-1.25,.68,.03,1.22,.57,1.25,1.25v.64c.95,.43,1.71,1.19,2.12,2.14,.27,.67-.06,1.42-.72,1.69-.64,.26-1.37-.03-1.66-.65-.27-.63-.92-1.01-1.6-.95-.38,.02-.7,.31-.76,.69-.08,.39,.11,.78,.46,.96l2.4,1.24c1.35,.68,2.1,2.17,1.84,3.67-.18,1.18-.97,2.18-2.08,2.62v.44c.03,.72-.53,1.32-1.25,1.35-.72,.03-1.32-.53-1.35-1.25,0-.03,0-.07,0-.1v-.35c-1.19-.35-2.15-1.22-2.65-2.35-.26-.67,.07-1.42,.74-1.68,.63-.25,1.35,.04,1.65,.65,.28,.63,.92,1.01,1.6,.95h.12c.34-.07,.61-.35,.65-.69,.08-.39-.12-.78-.47-.95h0Zm-5.81,7.93h10.4c.72,.03,1.28,.63,1.25,1.35-.03,.68-.57,1.22-1.25,1.25h-10.4c-.72-.03-1.28-.63-1.25-1.35,.03-.68,.57-1.22,1.25-1.25Z"/></g></g><rect class="cls-1" width="48" height="48"/></g></g></svg>