<?xml version="1.0" encoding="UTF-8"?><svg id="Capa_2" xmlns="http://www.w3.org/2000/svg" viewBox="0 0 48 48"><defs><style>.cls-1{fill:none;}.cls-2{fill:#1f2560;}</style></defs><g id="Capa_1-2"><g><path id="Trazado_42" class="cls-2" d="M37.53,24.06l-1.39-.27c.06-.15,.09-.31,.1-.47v-1.36c0-6.76-5.49-12.23-12.25-12.22-6.75,0-12.21,5.48-12.22,12.22v1.36c0,.16,.04,.32,.09,.47l-1.39,.27c-2.67,.5-4.47,3.02-4.1,5.71l.55,3.79c.33,2.15,1.97,3.85,4.1,4.27l1.93,.38c1.05,.2,2.13-.1,2.92-.82,.77-.7,1.16-1.74,1.04-2.77l-1.14-10.09c-.06-.67-.62-1.18-1.29-1.18v-1.39c0-5.26,4.26-9.52,9.52-9.52s9.52,4.26,9.52,9.52v1.39c-.27,0-.52,.08-.74,.23-.31,.22-.51,.57-.55,.95l-.9,7.96c-.06,0-.13,.02-.19,.03-1.2,.48-2.56,.42-3.71-.18l.25-.25c.54-.52,.55-1.38,.03-1.92-.52-.54-1.38-.55-1.92-.03l-.03,.03-2.71,2.72c-.54,.52-.55,1.38-.03,1.92,.52,.54,1.38,.55,1.92,.03l.03-.03,.49-.49c1.64,1.14,3.7,1.52,5.64,1.04,.09,.78,.45,1.51,1.03,2.04,.79,.72,1.87,1.03,2.92,.82l1.93-.38h0c2.13-.41,3.77-2.12,4.1-4.27l.55-3.79c.38-2.69-1.42-5.21-4.09-5.71Zm-23.5,11.33c-.15,.14-.35,.2-.55,.16l-1.93-.38c-1-.19-1.77-.98-1.93-1.99l-.55-3.79c-.17-1.26,.68-2.42,1.93-2.65l2.24-.44,.98,8.63c.02,.17-.05,.34-.18,.45h0Zm24.9-6l-.55,3.79c-.16,1-.93,1.8-1.93,1.99l-1.93,.38c-.2,.04-.4-.02-.55-.16-.13-.12-.2-.3-.18-.47l.98-8.63,2.24,.44c1.25,.23,2.1,1.4,1.93,2.66h0Z"/><rect class="cls-1" width="48" height="48"/></g></g></svg>