<?xml version="1.0" encoding="UTF-8"?><svg id="Capa_2" xmlns="http://www.w3.org/2000/svg" viewBox="0 0 48 48"><defs><style>.cls-1{fill:none;}.cls-2{fill:#1f2560;}</style></defs><g id="Capa_1-2"><g><g id="Grupo_280" transform="translate(-821.156 -1356.604)"><g id="Grupo_279" transform="translate(821.156 1356.604)"><g id="Grupo_278"><g id="Grupo_277"><path id="Trazado_767" class="cls-2" d="M34,14.65c-.59-1.42-.11-3.6-1.18-4.67s-3.25-.6-4.67-1.18c-1.37-.57-2.56-2.47-4.14-2.47s-2.77,1.89-4.14,2.47c-1.42,.59-3.6,.11-4.67,1.18s-.6,3.25-1.18,4.67c-.57,1.37-2.47,2.56-2.47,4.14s1.89,2.77,2.47,4.14c.59,1.42,.11,3.6,1.18,4.67s3.25,.6,4.67,1.18c1.37,.57,2.56,2.47,4.14,2.47s2.77-1.89,4.14-2.47c1.42-.59,3.6-.11,4.67-1.18s.6-3.25,1.18-4.67c.57-1.37,2.47-2.56,2.47-4.14s-1.9-2.77-2.47-4.14Zm-10,11.15c-3.87,0-7.01-3.14-7.01-7.01s3.14-7.01,7.01-7.01,7.01,3.14,7.01,7.01-3.14,7.01-7.01,7.01h0Z"/><path id="Trazado_768" class="cls-2" d="M23.25,22.06l1.59-1.59,3.36-3.36-1.59-1.59-3.36,3.36-1.86-1.86-1.59,1.59,1.86,1.86,1.6,1.59Zm8.94,18.38l-1.42-10.01c-.16,.02-.31,.03-.46,.04-.47,.02-.93,.09-1.39,.22-.38,.22-.73,.48-1.05,.78-1.75,2.14-4.9,2.46-7.03,.71-.26-.21-.5-.45-.71-.71-.32-.3-.67-.56-1.05-.78-.45-.13-.92-.2-1.39-.22l-.31-.03-1.54,10.24c-.07,.48,.26,.92,.73,.99,.18,.03,.37,0,.53-.09l6.6-3.41c.25-.13,.54-.13,.78,0l6.48,3.18c.43,.21,.95,.04,1.17-.39,.08-.16,.11-.34,.08-.51Z"/></g></g></g></g><rect class="cls-1" width="48" height="48"/></g></g></svg>