<?xml version="1.0" encoding="UTF-8"?><svg id="Capa_2" xmlns="http://www.w3.org/2000/svg" viewBox="0 0 48 48"><defs><style>.cls-1{fill:none;}.cls-2{fill:#1f2560;}</style></defs><g id="Capa_1-2"><g><g id="Grupo_298" transform="translate(-749.824 -1494.462)"><g id="Grupo_298-2" transform="translate(749.824 1494.462)"><path id="Trazado_779" class="cls-2" d="M40.99,25.3l-1.17-6.3c-.27-1.45-1.54-2.51-3.02-2.51h-2.57c-1.48,0-2.75,1.05-3.02,2.5,.09,.26,.17,.53,.22,.8l1.41,7.55c.16,.88,.03,1.79-.38,2.59,0,.02,.01,.04,.01,.06l.47,5.81c.06,.8,.73,1.41,1.53,1.41h2.08c.8,0,1.47-.62,1.53-1.41l.47-5.81c.02-.27,.11-.53,.27-.75l1.94-2.8c.23-.34,.32-.75,.24-1.15ZM12.59,14.32c2,0,3.62-1.61,3.63-3.61,0-2-1.61-3.62-3.61-3.63-2,0-3.62,1.61-3.63,3.61h0c0,2,1.62,3.62,3.62,3.63h0Zm23.02,0c2,0,3.62-1.61,3.63-3.61,0-2-1.61-3.62-3.61-3.63-2,0-3.62,1.61-3.63,3.61h0c0,2,1.62,3.62,3.61,3.63h0Zm-21.83,2.17h-2.57c-1.48,0-2.75,1.05-3.02,2.51l-1.17,6.3c-.07,.4,.01,.82,.25,1.15l1.94,2.8c.15,.22,.24,.48,.26,.75l.47,5.81c.06,.8,.73,1.41,1.53,1.41h2.08c.8,0,1.47-.62,1.53-1.41l.47-5.81s.01-.04,.01-.06c-.41-.8-.54-1.71-.38-2.59l1.41-7.55c.06-.27,.13-.54,.22-.8-.27-1.45-1.54-2.5-3.02-2.5h0Z"/><path id="Trazado_780" class="cls-2" d="M24.12,14.61c2.4,0,4.34-1.94,4.34-4.34,0-2.4-1.94-4.34-4.34-4.34-2.4,0-4.34,1.94-4.34,4.34h0c0,2.4,1.94,4.34,4.34,4.34Zm6.45,13.17l-1.41-7.55c-.32-1.74-1.85-3.01-3.62-3.01h-3.08c-1.77,0-3.3,1.26-3.62,3.01l-1.41,7.55c-.09,.48,.02,.98,.29,1.38l2.31,3.36c.18,.27,.29,.57,.32,.9l.56,6.97c.08,.96,.88,1.69,1.84,1.69h2.49c.96,0,1.76-.74,1.84-1.69l.56-6.97c.03-.32,.14-.63,.32-.9l2.31-3.36c.28-.41,.38-.9,.29-1.39h0Z"/></g></g><rect class="cls-1" width="48" height="48"/></g></g></svg>