<?xml version="1.0" encoding="UTF-8"?><svg id="Capa_2" xmlns="http://www.w3.org/2000/svg" viewBox="0 0 48 48"><defs><style>.cls-1{fill:none;}.cls-2{fill:#1f2560;}</style></defs><g id="Capa_1-2"><g><g id="Grupo_51" transform="translate(0)"><path id="Trazado_38" class="cls-2" d="M40.41,20.21h-3.05c-.29-1.04-.71-2.04-1.24-2.98l2.16-2.16c.49-.49,.49-1.29,0-1.78l-3.57-3.57c-.49-.49-1.29-.49-1.78,0l-2.16,2.16c-.94-.53-1.94-.94-2.98-1.24v-3.05c0-.7-.57-1.26-1.26-1.26h-5.05c-.7,0-1.26,.57-1.26,1.26h0v3.05c-1.04,.29-2.04,.71-2.98,1.24l-2.16-2.16c-.49-.49-1.29-.49-1.78,0l-3.57,3.57c-.49,.49-.49,1.29,0,1.78l2.16,2.16c-.53,.94-.94,1.94-1.24,2.98h-3.05c-.7,0-1.26,.57-1.26,1.26h0v5.05c0,.7,.57,1.26,1.26,1.26h3.05c.29,1.04,.71,2.04,1.24,2.98l-2.16,2.16c-.49,.49-.49,1.29,0,1.78l3.57,3.57c.49,.49,1.29,.49,1.78,0l2.16-2.16c.94,.53,1.94,.95,2.98,1.24v3.05c0,.7,.57,1.26,1.26,1.26h5.05c.7,0,1.26-.57,1.26-1.26h0v-3.05c1.04-.29,2.04-.71,2.98-1.24l2.16,2.16c.49,.49,1.29,.49,1.78,0l3.57-3.57c.49-.49,.49-1.29,0-1.78l-2.16-2.16c.53-.94,.94-1.94,1.24-2.98h3.05c.7,0,1.26-.57,1.26-1.26v-5.05c0-.7-.57-1.26-1.26-1.26h0Zm-16.42,7.58c-2.09,0-3.79-1.7-3.79-3.79s1.7-3.79,3.79-3.79,3.79,1.7,3.79,3.79h0c0,2.09-1.7,3.78-3.79,3.78h0Z"/></g><rect class="cls-1" width="48" height="48"/></g></g></svg>