<?xml version="1.0" encoding="utf-8"?>
<!-- Generator: Adobe Illustrator 26.3.1, SVG Export Plug-In . SVG Version: 6.00 Build 0)  -->
<svg version="1.1" id="Capa_2_00000178916681113027161690000002939428565402256772_"
	 xmlns="http://www.w3.org/2000/svg" xmlns:xlink="http://www.w3.org/1999/xlink" x="0px" y="0px" viewBox="0 0 48 48"
	 style="enable-background:new 0 0 48 48;" xml:space="preserve">
<style type="text/css">
	.st0{fill:#1F2560;}
	.st1{fill:none;}
</style>
<g id="Capa_1-2">
	<g>
		<g id="Grupo_86" transform="translate(-388.502 -1213.59)">
			<path id="Trazado_76" class="st0" d="M412.5,1231.3c-3.5,0-6.3,2.8-6.3,6.3s2.8,6.3,6.3,6.3s6.3-2.8,6.3-6.3
				S416,1231.3,412.5,1231.3z M412.5,1241.4c-2.1,0-3.8-1.7-3.8-3.8s1.7-3.8,3.8-3.8s3.8,1.7,3.8,3.8S414.6,1241.4,412.5,1241.4
				L412.5,1241.4z"/>
			<path id="Trazado_77" class="st0" d="M428.9,1233.8h-3c-0.3-1-0.7-2-1.2-3l2.2-2.2c0.5-0.5,0.5-1.3,0-1.8l-3.6-3.6
				c-0.5-0.5-1.3-0.5-1.8,0l-2.2,2.2c-0.9-0.5-1.9-0.9-3-1.2v-3.1c0-0.7-0.6-1.3-1.3-1.3h-5c-0.7,0-1.3,0.6-1.3,1.3l0,0v3.1
				c-1,0.3-2,0.7-3,1.2l-2.2-2.2c-0.5-0.5-1.3-0.5-1.8,0l-3.6,3.6c-0.5,0.5-0.5,1.3,0,1.8l2.2,2.2c-0.5,0.9-0.9,1.9-1.2,3h-3
				c-0.7,0-1.3,0.6-1.3,1.3l0,0v5.1c0,0.7,0.6,1.3,1.3,1.3h3c0.3,1,0.7,2,1.2,3l-2.2,2.2c-0.5,0.5-0.5,1.3,0,1.8l3.6,3.6
				c0.5,0.5,1.3,0.5,1.8,0l2.2-2.2c0.9,0.5,1.9,0.9,3,1.2v3.1c0,0.7,0.6,1.3,1.3,1.3h5c0.7,0,1.3-0.6,1.3-1.3l0,0v-3.1
				c1-0.3,2-0.7,3-1.2l2.2,2.2c0.5,0.5,1.3,0.5,1.8,0l3.6-3.6c0.5-0.5,0.5-1.3,0-1.8l-2.2-2.2c0.5-0.9,1-1.9,1.2-3h3
				c0.7,0,1.3-0.6,1.3-1.3l0,0v-5.1C430.2,1234.4,429.6,1233.8,428.9,1233.8C428.9,1233.8,428.9,1233.8,428.9,1233.8z M427.6,1238.9
				h-2.8c-0.6,0-1.1,0.4-1.2,1c-0.3,1.4-0.9,2.8-1.7,4c-0.3,0.5-0.3,1.2,0.2,1.6l2,2l-1.8,1.8l-2-2c-0.4-0.4-1.1-0.5-1.6-0.2
				c-1.2,0.8-2.6,1.4-4,1.7c-0.6,0.1-1,0.6-1,1.2v2.8h-2.5v-2.8c0-0.6-0.4-1.1-1-1.2c-1.4-0.3-2.8-0.8-4-1.7
				c-0.5-0.3-1.2-0.3-1.6,0.2l-2,2l-1.8-1.8l2-2c0.4-0.4,0.5-1.1,0.2-1.6c-0.8-1.2-1.4-2.6-1.7-4c-0.1-0.6-0.6-1-1.2-1h-2.8v-2.5
				h2.8c0.6,0,1.1-0.4,1.2-1c0.3-1.4,0.9-2.8,1.7-4c0.3-0.5,0.3-1.2-0.2-1.6l-2-2l1.8-1.8l2,2c0.4,0.4,1.1,0.5,1.6,0.2
				c1.2-0.8,2.6-1.4,4-1.7c0.6-0.1,1-0.6,1-1.2v-2.8h2.5v2.8c0,0.6,0.4,1.1,1,1.2c1.4,0.3,2.8,0.8,4,1.7c0.5,0.3,1.2,0.3,1.6-0.2
				l2-2l1.8,1.8l-2,2c-0.4,0.4-0.5,1.1-0.2,1.6c0.8,1.2,1.4,2.6,1.7,4c0.1,0.6,0.6,1,1.2,1h2.8L427.6,1238.9L427.6,1238.9z"/>
		</g>
		<rect y="0" class="st1" width="48" height="48"/>
	</g>
</g>
</svg>
