<?xml version="1.0" encoding="UTF-8"?><svg id="Capa_2" xmlns="http://www.w3.org/2000/svg" viewBox="0 0 48 48"><defs><style>.cls-1{fill:none;}.cls-2{fill:#1f2560;}</style></defs><g id="Capa_1-2"><g><g id="Grupo_299" transform="translate(-1914.054 -2010.329)"><g id="Grupo_304" transform="translate(1914.054 2010.329)"><g id="Grupo_303"><g id="Grupo_302"><g id="Grupo_301"><g id="Grupo_300"><path id="Trazado_783" class="cls-2" d="M24.54,30.29h-2.71v.59c0,.76-.62,1.37-1.38,1.37-.76,0-1.37-.61-1.37-1.37v-.59H8.53c-.62,0-1.24-.1-1.83-.29v6.25c0,1.01,.82,1.83,1.83,1.83H26.11c-1.53-2.29-2.1-5.09-1.57-7.79h0Zm9.67-16.96h-5.15v-2.74c0-1.71-1.39-3.1-3.1-3.1H14.94c-1.71,0-3.1,1.39-3.1,3.1v2.74H6.69c-1.01,0-1.83,.82-1.83,1.83v9.17c0,2.03,1.64,3.67,3.67,3.67h10.55v-1.02c0-.76,.61-1.38,1.37-1.38,.76,0,1.38,.61,1.38,1.37h0v1.03h3.43c1.69-3.81,5.46-6.28,9.64-6.29,.38,0,.77,.02,1.15,.07v-6.62c0-1.01-.82-1.83-1.83-1.83Zm-8.25,0H14.95v-2.74h11v2.74Z"/><path id="Trazado_784" class="cls-2" d="M34.89,24.01c-4.56,0-8.25,3.7-8.25,8.25,0,4.56,3.7,8.25,8.25,8.25,4.56,0,8.25-3.7,8.25-8.25,0-4.56-3.7-8.25-8.25-8.25Zm-.4,6.67l1.86,.96c1.11,.56,1.72,1.77,1.51,2.99-.14,.93-.75,1.73-1.61,2.11v.25c-.02,.63-.55,1.13-1.18,1.11-.6-.02-1.09-.5-1.11-1.11v-.17c-.91-.3-1.66-.98-2.04-1.86-.26-.58-.01-1.26,.56-1.52,.58-.26,1.26-.01,1.52,.56l.02,.04c.19,.43,.64,.7,1.11,.66,.24,0,.44-.18,.47-.42,.05-.24-.07-.48-.29-.59l-1.86-.96c-1.12-.57-1.73-1.82-1.49-3.06,.18-1.06,.96-1.92,2-2.19v-.17c.02-.63,.55-1.13,1.18-1.11,.6,.02,1.09,.5,1.11,1.11v.42c.73,.35,1.31,.95,1.63,1.69,.23,.59-.06,1.25-.65,1.49-.56,.22-1.19-.03-1.45-.57-.19-.43-.64-.7-1.11-.66-.24,.01-.43,.19-.47,.42-.05,.24,.06,.48,.28,.59h0Z"/></g></g></g></g></g></g><rect class="cls-1" width="48" height="48"/></g></g></svg>