<?xml version="1.0" encoding="utf-8"?>
<!-- Generator: Adobe Illustrator 26.3.1, SVG Export Plug-In . SVG Version: 6.00 Build 0)  -->
<svg version="1.1" id="Capa_2_00000054983951381401641080000006992333370992039348_"
	 xmlns="http://www.w3.org/2000/svg" xmlns:xlink="http://www.w3.org/1999/xlink" x="0px" y="0px" viewBox="0 0 48 48"
	 style="enable-background:new 0 0 48 48;" xml:space="preserve">
<style type="text/css">
	.st0{fill:#1F2560;}
	.st1{fill:none;}
</style>
<g id="Capa_1-2">
	<g>
		<g id="Grupo_276" transform="translate(-181.035 -64.045)">
			<path id="Trazado_766" class="st0" d="M205,70.4c-9.8,0-17.7,7.9-17.7,17.7s7.9,17.7,17.7,17.7c9.8,0,17.7-7.9,17.7-17.7l0,0
				C222.7,78.3,214.8,70.4,205,70.4z M216.4,91.8c0,0.7-0.6,1.3-1.3,1.3s-1.3-0.6-1.3-1.3v-2.5h-3.8v2.5c0,0.7-0.6,1.3-1.3,1.3
				s-1.3-0.6-1.3-1.3v-2.5h-4c-0.7,2.7-3.4,4.3-6.1,3.6c-2.7-0.7-4.3-3.5-3.6-6.2c0.7-2.7,3.5-4.3,6.2-3.6c1.8,0.5,3.2,1.8,3.6,3.6
				h11.5c0.7,0,1.3,0.6,1.3,1.3V91.8L216.4,91.8z"/>
			<circle id="Elipse_27" class="st0" cx="198.6" cy="88" r="2.6"/>
		</g>
		<rect class="st1" width="48" height="48"/>
	</g>
</g>
</svg>
