<?xml version="1.0" encoding="UTF-8"?><svg id="Capa_2" xmlns="http://www.w3.org/2000/svg" viewBox="0 0 48 48"><defs><style>.cls-1{fill:none;}.cls-2{fill:#1f2560;}</style></defs><g id="Capa_1-2"><g><g id="Grupo_43" transform="translate(0)"><path id="Trazado_32" class="cls-2" d="M39.97,16.86l-13.89-8.66c-1.27-.79-2.89-.79-4.16,0l-13.89,8.66c-1.05,.65-1.69,1.79-1.7,3.02v16.94c.03,2.01,1.67,3.61,3.68,3.59h27.98c2.01,.03,3.66-1.58,3.68-3.58h0V19.88c0-1.23-.65-2.38-1.7-3.02Zm-20.51,14.3l-8.61,6.69c-.52,.41-1.27,.31-1.68-.21-.41-.52-.31-1.27,.21-1.68l8.61-6.69c.52-.41,1.27-.31,1.68,.21,.41,.52,.31,1.27-.21,1.68Zm3.39-2.81l-10.9-7.72c-.67-.48-.83-1.41-.36-2.08,.29-.41,.76-.65,1.26-.63h22.27c.83-.02,1.51,.63,1.54,1.45,.01,.5-.22,.97-.63,1.26l-10.9,7.72c-.68,.48-1.59,.48-2.27,0h0Zm15.95,9.29c-.4,.52-1.15,.62-1.67,.21h0l-8.61-6.7c-.52-.41-.61-1.16-.21-1.68,.41-.52,1.16-.61,1.68-.21l8.61,6.69c.52,.4,.62,1.15,.22,1.67h-.01Z"/><path id="Trazado_33" class="cls-2" d="M28.29,20.17h-7.65c-.79,0-1.43,.64-1.43,1.43s.64,1.43,1.43,1.43h7.65c.79,0,1.43-.64,1.43-1.43s-.64-1.43-1.43-1.43Z"/></g><rect class="cls-1" width="48" height="48"/></g></g></svg>