<?xml version="1.0" encoding="UTF-8"?><svg id="Capa_2" xmlns="http://www.w3.org/2000/svg" viewBox="0 0 48 48"><defs><style>.cls-1{fill:none;}.cls-2{fill:#1f2560;}</style></defs><g id="Capa_1-2"><g><g id="Grupo_321" transform="translate(-1782.179 -2077.086)"><g id="Grupo_321-2" transform="translate(1782.179 2077.086)"><path id="Trazado_797" class="cls-2" d="M31.06,6.33h-14.69c-4.31,.06-7.76,3.59-7.7,7.9,.05,4.23,3.47,7.65,7.7,7.7h5.97v-2.75c0-2.28,1.85-4.13,4.13-4.13,.44,0,.87,.07,1.29,.2,1.72,.57,2.87,2.19,2.84,4.01v2.68h.46c4.31,.06,7.85-3.39,7.9-7.7s-3.39-7.85-7.7-7.9c-.07,0-.13,0-.2,0h0Zm-14.86,6.6l1.87,.96c1.11,.56,1.72,1.78,1.51,3-.14,.93-.75,1.73-1.62,2.11v.25c0,.63-.51,1.15-1.15,1.15s-1.15-.51-1.15-1.15v-.17c-.92-.3-1.66-.98-2.05-1.87-.25-.58,.01-1.26,.6-1.51s1.26,.01,1.51,.6c.19,.43,.64,.7,1.11,.66,.24,0,.44-.18,.48-.42,.05-.24-.07-.48-.29-.59l-1.87-.96c-1.12-.57-1.73-1.82-1.49-3.06,.18-1.06,.96-1.92,2-2.2v-.17c0-.63,.51-1.15,1.15-1.15s1.15,.51,1.15,1.15h0v.42c.73,.35,1.31,.95,1.64,1.69,.24,.59-.04,1.26-.63,1.5-.57,.23-1.22-.02-1.48-.58-.19-.43-.64-.7-1.11-.66-.24,.01-.43,.19-.47,.42-.06,.24,.06,.49,.29,.6h0Zm14.4,.05h-7.34c-.63,0-1.15-.51-1.15-1.15s.51-1.15,1.15-1.15h7.34c.63,0,1.15,.51,1.15,1.15s-.51,1.15-1.15,1.15Z"/><path id="Trazado_798" class="cls-2" d="M37.8,26.09c-.72-.08-1.44,.14-1.99,.61-.22-.79-.88-1.38-1.68-1.53-.68-.08-1.37,.12-1.9,.55-.29-.76-.97-1.32-1.77-1.47-.8-.08-1.59,.22-2.14,.8v-5.8c.02-.81-.48-1.54-1.24-1.82-.96-.33-2.01,.19-2.34,1.15-.06,.19-.1,.39-.1,.59v14.69c-1.01,0-1.84-.82-1.84-1.84v-1.66c0-.35-.29-.64-.64-.64h-.55c-1.37,0-2.48,1.11-2.48,2.48v4.53c0,.79,.34,1.55,.94,2.07l2.47,2.17c.5,.44,1.15,.68,1.82,.68h10.16c.73,0,1.43-.29,1.95-.81l2.06-2.06c.52-.52,.81-1.22,.81-1.95v-8.86c.02-.93-.62-1.73-1.53-1.91Z"/></g></g><rect class="cls-1" width="48" height="48"/></g></g></svg>