<?xml version="1.0" encoding="UTF-8"?><svg id="Capa_2" xmlns="http://www.w3.org/2000/svg" viewBox="0 0 48 48"><defs><style>.cls-1{fill:none;}.cls-2{fill:#1f2560;}</style></defs><g id="Capa_1-2"><g><g id="Grupo_308" transform="translate(-1116.062 -1557.566)"><g id="Grupo_312" transform="translate(1116.062 1557.566)"><g id="Grupo_311"><g id="Grupo_310"><path id="Trazado_789" class="cls-2" d="M23.31,39.74c-.17-.17-.45-.17-.62,0h0c-.29,.29-.71,.71-.9,.9-.07,.07-.12,.17-.13,.28l-.22,2.88c-.02,.24,.16,.46,.41,.48,.03,0,.06,0,.09,0l2.76-.32c.1-.01,.19-.06,.26-.13l.9-.9c.17-.17,.17-.45,0-.63l-2.55-2.55Zm11.93-6.83l-2.55-2.55c-.17-.17-.45-.17-.63,0h0l-7.14,7.14c-.17,.17-.17,.45,0,.63h0l2.55,2.55c.17,.17,.45,.17,.63,0h0l7.14-7.14c.17-.17,.17-.45,0-.63h0Zm-1.92-18.16c0-.98-.79-1.78-1.78-1.78h-.97c-.25,0-.44,.2-.44,.44h0v2.67c0,.25-.2,.44-.44,.44H14.65c-.25,0-.44-.2-.44-.44h0v-2.67c0-.25-.2-.44-.44-.44h-.88c-.98,0-1.78,.8-1.78,1.78h0v23.11c0,.98,.8,1.78,1.78,1.78h6.91c.11-.21,.25-.4,.42-.57,.32-.32,1.22-1.22,1.22-1.22l11.9-11.9V14.75Zm-10.22,12.78h-6.22c-.61,0-1.11-.5-1.11-1.11s.5-1.11,1.11-1.11h6.22c.61,0,1.11,.5,1.11,1.11s-.5,1.11-1.11,1.11Zm4.44-4.44h-10.67c-.61,0-1.11-.5-1.11-1.11s.5-1.11,1.11-1.11h10.67c.61,0,1.11,.5,1.11,1.11s-.5,1.11-1.11,1.11Z"/><path id="Trazado_790" class="cls-2" d="M25.57,10.06c-.67-.21-1.12-.83-1.13-1.53,.02-1.2-.94-2.19-2.14-2.21h-.12c-1.17-.03-2.15,.9-2.18,2.07v.04c.03,.73-.43,1.39-1.12,1.62-1.41,.48-2.44,.91-2.44,2.49v1.33c0,.25,.2,.44,.44,.44h10.67c.25,0,.44-.2,.44-.44h0v-1.33c0-1.57-1.02-2.01-2.43-2.49Zm13.19,19.34l-2.55-2.55c-.17-.17-.45-.17-.63,0l-1.34,1.34c-.17,.17-.17,.45,0,.63l2.55,2.55c.17,.17,.45,.17,.63,0l1.34-1.34c.17-.17,.17-.46,0-.63h0Z"/></g></g></g></g><rect class="cls-1" width="48" height="48"/></g></g></svg>