<?xml version="1.0" encoding="UTF-8"?><svg id="Capa_2" xmlns="http://www.w3.org/2000/svg" viewBox="0 0 48 48"><defs><style>.cls-1{fill:none;}.cls-2{fill:#1f2560;}</style></defs><g id="Capa_1-2"><g><g id="lcMM7z.tif" transform="translate(-4917.614 -2215.026)"><g id="Grupo_292" transform="translate(4917.614 2215.026)"><path id="Trazado_773" class="cls-2" d="M8.85,7.92v-.63c.26-.65,.93-1.04,1.63-.95,9.02,.02,18.04,.02,27.05,0h.43c.61,.05,1.11,.52,1.17,1.14,.06,.6-.32,1.15-.9,1.32-.19,.05-.39,.07-.58,.06h-2.3c0,.6,.03,1.15,0,1.7-.02,1.04-.09,2.07-.24,3.1-.44,3.8-2.85,7.1-6.33,8.69-.67,.27-1.1,.94-1.07,1.66-.02,.71,.4,1.37,1.05,1.66,.29,.15,.6,.27,.88,.43,2.6,1.48,4.47,3.96,5.16,6.87,.39,1.39,.57,2.84,.55,4.29v1.91h2.56c.59,.01,1.09,.43,1.2,1.01,.1,.55-.16,1.1-.65,1.36l-.27,.15H9.81c-.43-.18-.77-.52-.95-.95v-.63c.24-.67,.93-1.07,1.63-.95,.36,.03,.74,0,1.1,0h1.06c0-.67-.04-1.27,0-1.87,.03-1.13,.14-2.25,.33-3.36,.54-3.62,2.88-6.72,6.22-8.23,.7-.28,1.14-.97,1.09-1.72,0-.75-.46-1.42-1.16-1.68-2.49-1.11-4.44-3.16-5.41-5.71-.7-1.71-1.06-3.53-1.07-5.37-.01-.77,0-1.54,0-2.35-.75,0-1.46-.03-2.16,0-.7,.12-1.38-.27-1.64-.93Zm6.32,.96v2.27c0,1.37,.25,2.73,.71,4.03,.67,2.12,2.21,3.87,4.23,4.8,2.23,.92,3.3,3.49,2.37,5.72-.45,1.08-1.31,1.94-2.39,2.38-1.11,.49-2.08,1.26-2.82,2.22-1.75,2.6-2.49,5.75-2.08,8.86h17.63c.14-1.92-.03-3.85-.51-5.72-.64-2.44-2.35-4.46-4.65-5.49-1.59-.66-2.58-2.26-2.46-3.98-.04-1.7,.97-3.25,2.55-3.89,1.71-.76,3.1-2.1,3.91-3.79,1.02-2.32,1.42-4.87,1.16-7.4H15.16Z"/><path id="Trazado_774" class="cls-2" d="M24,37.9h-6.11c-.71,.1-1.37-.39-1.47-1.09-.02-.13-.02-.26,0-.38,.21-4.18,3.78-7.4,7.96-7.18,3.89,.2,7,3.32,7.18,7.21,.1,.7-.39,1.35-1.09,1.45-.11,.02-.22,.02-.33,0h-6.14Z"/></g></g><rect class="cls-1" width="48" height="48"/></g></g></svg>