<?xml version="1.0" encoding="UTF-8"?><svg id="Capa_2" xmlns="http://www.w3.org/2000/svg" viewBox="0 0 48 48"><defs><style>.cls-1{fill:none;}.cls-2{fill:#1f2560;}</style></defs><g id="Capa_1-2"><g><g id="Grupo_284" transform="translate(-819.283 -1214.63)"><g id="Grupo_283" transform="translate(819.283 1214.63)"><g id="Grupo_282"><g id="Grupo_281"><path id="Trazado_769" class="cls-2" d="M16.33,28.95c-.06-.19-.24-.32-.44-.32h-2.28c-4.02,0-7.28,3.26-7.28,7.28h0v3.23c0,.6,.49,1.08,1.08,1.08h11.95c.26,0,.47-.21,.47-.46,0-.05,0-.1-.02-.14l-3.48-10.67Zm7.7-20.77c-4.87-.84-9.49,2.43-10.32,7.3-.84,4.87,2.43,9.49,7.3,10.32s9.49-2.43,10.32-7.3c.17-1,.17-2.03,0-3.03-.64-3.73-3.56-6.65-7.3-7.3Z"/><path id="Trazado_770" class="cls-2" d="M22.51,28.88c-.77,0-1.4,.62-1.4,1.4h0v7.44c.02,.77,.66,1.38,1.43,1.35,.74-.02,1.33-.62,1.35-1.35v-7.44c0-.77-.62-1.39-1.39-1.4Zm18.65,1.28c-.4-.96,.44-2.77-.28-3.49s-2.54,.11-3.49-.28c-.92-.38-1.6-2.27-2.67-2.27s-1.74,1.89-2.67,2.27c-.96,.4-2.77-.44-3.49,.28s.11,2.54-.28,3.49c-.38,.93-2.27,1.61-2.27,2.67s1.89,1.74,2.27,2.67c.4,.96-.44,2.77,.28,3.49s2.54-.11,3.49,.28c.93,.38,1.61,2.27,2.67,2.27s1.74-1.89,2.67-2.27c.96-.4,2.77,.44,3.49-.28s-.11-2.54,.28-3.49c.38-.93,2.27-1.61,2.27-2.67s-1.89-1.75-2.27-2.67h0Zm-6.45,7.79c-.77,0-1.4-.63-1.4-1.4s.63-1.4,1.4-1.4c.77,0,1.4,.63,1.4,1.4h0c0,.77-.63,1.4-1.4,1.4h0Zm1.4-5.81c.02,.77-.58,1.41-1.35,1.43-.77,.02-1.41-.58-1.43-1.35,0-.03,0-.05,0-.08v-3.34c-.02-.77,.58-1.41,1.35-1.43,.77-.02,1.41,.58,1.43,1.35,0,.03,0,.05,0,.08v3.34Z"/></g></g></g></g><rect class="cls-1" width="48" height="48"/></g></g></svg>