<?xml version="1.0" encoding="UTF-8"?><svg id="Capa_2" xmlns="http://www.w3.org/2000/svg" viewBox="0 0 48 48"><defs><style>.cls-1{fill:none;}.cls-2{fill:#1f2560;}</style></defs><g id="Capa_1-2"><g><g id="Grupo_293" transform="translate(2303.305 -1291.769)"><g id="Grupo_295" transform="translate(-2303.305 1291.769)"><path id="Trazado_776" class="cls-2" d="M23.03,6.33h1.94c.07,.02,.14,.03,.22,.04,1.32,.07,2.62,.29,3.88,.67,3.44,.97,6.3,3.36,7.86,6.58,1.03,2.13,1.56,4.46,1.56,6.82,.05,1.71-.07,3.42-.37,5.1-.42,2.08-1.26,4.06-2.46,5.81-1.14,1.65-2.37,3.23-3.68,4.74-1.13,1.4-2.4,2.68-3.79,3.82-.89,.75-1.92,1.3-3.03,1.63-.25,.06-.5,.1-.75,.16h-.84s-.06-.03-.1-.04c-.67-.09-1.32-.3-1.92-.62-1.25-.68-2.38-1.55-3.36-2.58-1.7-1.75-3.29-3.61-4.75-5.57-1.14-1.44-2.08-3.02-2.79-4.71-.62-1.62-.98-3.32-1.06-5.05-.15-1.81-.09-3.64,.19-5.43,.33-2.11,1.14-4.11,2.37-5.85,2.27-3.08,5.76-5.03,9.57-5.34,.44-.07,.88-.1,1.31-.14Zm-1.97,25.01h.49c.93-.07,1.3-.49,1.28-1.41-.04-.62-.2-1.22-.47-1.78-.85-1.87-2.03-3.56-3.49-5-.64-.68-1.38-1.25-2.2-1.68-1-.61-2.3-.29-2.9,.71-.12,.2-.21,.43-.26,.66-.02,.06-.03,.11-.05,.17-.3,1.31-.06,2.68,.66,3.82,.96,1.63,2.39,2.95,4.09,3.78,.88,.48,1.86,.73,2.86,.74h0Zm6.24,.04c.31-.02,.63-.05,.94-.11,2.8-.62,5.15-2.51,6.36-5.11,.54-1.07,.63-2.32,.25-3.46-.28-1.1-1.4-1.77-2.51-1.48-.14,.04-.28,.09-.41,.15-.39,.18-.76,.39-1.1,.64-.95,.7-1.79,1.53-2.51,2.47-1,1.19-1.81,2.53-2.4,3.96-.24,.55-.36,1.16-.34,1.76-.01,.52,.36,.96,.87,1.05,.27,.07,.57,.09,.86,.12h0Z"/></g></g><rect class="cls-1" width="48" height="48"/></g></g></svg>