<?xml version="1.0" encoding="UTF-8"?><svg id="Capa_2" xmlns="http://www.w3.org/2000/svg" viewBox="0 0 48 48"><defs><style>.cls-1{fill:none;}.cls-2{fill:#1f2560;}</style></defs><g id="Capa_1-2"><g><path id="Trazado_39" class="cls-2" d="M40.41,33.47h-1.27v-11.15l.91-2.73h.35c.7,0,1.26-.56,1.26-1.26,0-.46-.26-.89-.66-1.11L24.6,8.37c-.37-.2-.82-.2-1.2,0L6.99,17.21c-.61,.33-.84,1.1-.51,1.71,.22,.41,.65,.66,1.11,.66h.35l.91,2.73v11.15h-1.26c-.7,0-1.26,.57-1.26,1.26h0v3.79c0,.7,.57,1.26,1.26,1.26H40.41c.7,0,1.26-.57,1.26-1.26h0v-3.79c0-.69-.57-1.25-1.26-1.25Zm-3.72-11.76c-.04,.13-.07,.26-.07,.4v11.36h-2.53v-11.36c0-.14-.02-.27-.07-.4l-.71-2.13h4.07l-.71,2.13Zm-8.9,11.76v-11.15l.91-2.73h1.97l.91,2.73v11.15h-3.79Zm-11.36,0v-11.15l.91-2.73h1.97l.91,2.73v11.15h-3.79Zm6.25-11.76l-.71-2.13h4.07l-.71,2.13c-.04,.13-.07,.26-.07,.4v11.36h-2.53v-11.36c0-.14-.02-.27-.07-.4h0Zm1.33-10.79l11.4,6.14H12.6l11.41-6.14Zm-12.69,10.79l-.71-2.13h4.07l-.71,2.13c-.04,.13-.07,.26-.07,.4v11.36h-2.53v-11.36c0-.14-.02-.27-.07-.4h0Zm27.84,15.55H8.85v-1.26h30.29v1.26Z"/><rect class="cls-1" width="48" height="48"/></g></g></svg>