<?xml version="1.0" encoding="utf-8"?>
<!-- Generator: Adobe Illustrator 26.3.1, SVG Export Plug-In . SVG Version: 6.00 Build 0)  -->
<svg version="1.1" id="Capa_2_00000085220806460212914640000015105057626792050085_"
	 xmlns="http://www.w3.org/2000/svg" xmlns:xlink="http://www.w3.org/1999/xlink" x="0px" y="0px" viewBox="0 0 48 48"
	 style="enable-background:new 0 0 48 48;" xml:space="preserve">
<style type="text/css">
	.st0{fill:#1F2560;}
	.st1{fill:none;}
</style>
<g id="Capa_1-2">
	<g>
		<g id="Grupo_365" transform="translate(101.641 360.547)">
			<path id="Trazado_823" class="st0" d="M-88.9-338.1c0.8,0,1.5,0.7,1.5,1.5c0,0.8-0.7,1.5-1.5,1.5c-0.8,0-1.5-0.7-1.5-1.5
				C-90.4-337.4-89.7-338-88.9-338.1C-88.9-338.1-88.9-338.1-88.9-338.1z M-92.8-327.6H-75c-0.1-0.2-0.1-0.4-0.1-0.6v-1.6h-15.1
				c0-0.1,0-0.3,0-0.5c0-1.4-1.1-2.5-2.5-2.5l0,0c-0.2,0-0.3,0-0.5,0v-7.6c0.2,0,0.3,0,0.5,0c1.4,0,2.5-1.1,2.5-2.5l0,0
				c0-0.2,0-0.3,0-0.5h18.5c-0.1,0.2-0.1,0.4-0.1,0.6c0,1.1,0.7,2,1.7,2.4c0.1-1,1-1.8,2-1.8h1.5v-0.8c0-1.4-1.1-2.5-2.5-2.5h-23.8
				c-1.4,0-2.5,1.1-2.5,2.5v12.8C-95.3-328.8-94.2-327.6-92.8-327.6L-92.8-327.6L-92.8-327.6z M-73-336.5c-0.3,0-0.6,0.3-0.6,0.6
				l0,0v7.7c0,0.3,0.3,0.6,0.6,0.6h2.6c0.3,0,0.6-0.3,0.6-0.6l0,0v-7.7c0-0.3-0.3-0.6-0.6-0.6H-73z M-65.5-340.7h-2.6
				c-0.3,0-0.6,0.3-0.6,0.6l0,0v11.9c0,0.3,0.3,0.6,0.6,0.6h2.6c0.3,0,0.6-0.3,0.6-0.6l0,0v-11.9C-64.9-340.4-65.2-340.7-65.5-340.7
				L-65.5-340.7L-65.5-340.7z M-60.5-333.8h-2.6c-0.3,0-0.6,0.3-0.6,0.6l0,0v5c0,0.3,0.3,0.6,0.6,0.6h2.6c0.3,0,0.6-0.3,0.6-0.6l0,0
				v-5C-60-333.6-60.2-333.8-60.5-333.8L-60.5-333.8z M-80.9-342c3,0,5.4,2.5,5.5,5.5c0,3-2.4,5.5-5.5,5.5c-3,0-5.4-2.4-5.5-5.5
				C-86.4-339.6-83.9-342-80.9-342C-80.9-342-80.9-342-80.9-342z M-80.4-341.1h-0.7c-0.1,0-0.2,0.1-0.2,0.2l0,0v0.8
				c-0.5,0.1-0.9,0.3-1.3,0.6c-0.4,0.3-0.6,0.8-0.5,1.3c0,0.5,0.2,1,0.5,1.4c0.5,0.4,1,0.7,1.6,0.9c0.2,0.1,0.5,0.2,0.6,0.4
				c0.1,0.2,0.2,0.4,0.2,0.6c0,0.2,0,0.4-0.2,0.5c-0.1,0.1-0.3,0.2-0.5,0.2c-0.2,0-0.5-0.1-0.7-0.3c-0.2-0.2-0.2-0.4-0.2-0.6
				c0-0.1-0.1-0.2-0.2-0.2l-1.1,0c-0.1,0-0.2,0.1-0.2,0.2c0,0.5,0.2,1,0.6,1.4c0.4,0.4,0.9,0.6,1.5,0.6v0.8c0,0.1,0.1,0.2,0.2,0.2
				h0.7c0.1,0,0.2-0.1,0.2-0.2l0,0v-0.8c0.4-0.1,0.8-0.3,1.1-0.5c0.3-0.4,0.5-0.8,0.5-1.3c0-0.5-0.2-1-0.5-1.3
				c-0.5-0.4-1-0.7-1.6-0.9c-0.2-0.1-0.5-0.2-0.7-0.4c-0.1-0.1-0.2-0.3-0.2-0.5c0-0.2,0-0.4,0.2-0.5c0.1-0.1,0.3-0.2,0.5-0.2
				c0.2,0,0.4,0.1,0.5,0.2c0.1,0.2,0.2,0.4,0.2,0.6c0,0.1,0.1,0.2,0.2,0.2h1.1c0.1,0,0.2-0.1,0.2-0.2l0,0c0-0.5-0.2-0.9-0.5-1.2
				c-0.3-0.4-0.7-0.6-1.2-0.7v-0.9C-80.2-341-80.3-341-80.4-341.1L-80.4-341.1L-80.4-341.1z"/>
		</g>
		<rect y="0" class="st1" width="48" height="48"/>
	</g>
</g>
</svg>
