<?xml version="1.0" encoding="UTF-8"?><svg id="Capa_2" xmlns="http://www.w3.org/2000/svg" viewBox="0 0 48 48"><defs><style>.cls-1{fill:none;}.cls-2{fill:#1f2560;}</style></defs><g id="Capa_1-2"><g><g><path class="cls-2" d="M24,6.33C14.25,6.33,6.33,14.25,6.33,24s7.93,17.67,17.67,17.67,17.67-7.93,17.67-17.67S33.75,6.33,24,6.33Zm11.69,27.3c-2.54-3.63-6.87-5.84-11.69-5.84s-9.15,2.22-11.69,5.84c-2.16-2.62-3.46-5.98-3.46-9.63,0-8.35,6.8-15.15,15.15-15.15s15.15,6.8,15.15,15.15c0,3.65-1.3,7.01-3.46,9.63Z"/><path class="cls-2" d="M23.99,13.9c-3.48,0-6.31,2.83-6.31,6.31s2.83,6.31,6.31,6.31,6.31-2.83,6.31-6.31-2.83-6.31-6.31-6.31Z"/></g><rect class="cls-1" width="48" height="48"/></g></g></svg>