<?xml version="1.0" encoding="UTF-8"?><svg id="Capa_2" xmlns="http://www.w3.org/2000/svg" viewBox="0 0 48 48"><defs><style>.cls-1{fill:none;}.cls-2{fill:#1f2560;}</style></defs><g id="Capa_1-2"><g><g><path id="Trazado_7" class="cls-2" d="M24,6.37C14.27,6.37,6.37,14.27,6.37,24s7.89,17.63,17.63,17.63,17.63-7.89,17.63-17.63h0c-.01-9.73-7.9-17.61-17.63-17.63Zm0,2.52c8.34,0,15.11,6.75,15.11,15.09,0,3.51-1.22,6.92-3.46,9.63-2.7-3.73-7.05-5.9-11.66-5.82-4.6-.07-8.95,2.1-11.65,5.82-5.31-6.43-4.4-15.95,2.03-21.26,2.71-2.24,6.11-3.46,9.62-3.46Zm-9.85,26.54c2.19-3.28,5.9-5.22,9.85-5.14,3.94-.06,7.64,1.88,9.85,5.14-5.65,4.9-14.04,4.9-19.69,0h0Z"/><path id="Trazado_8" class="cls-2" d="M24,26.52c3.48,0,6.29-2.82,6.29-6.29s-2.82-6.29-6.29-6.29c-3.48,0-6.29,2.82-6.29,6.29,0,3.47,2.82,6.29,6.29,6.3Zm0-10.07c2.09,0,3.78,1.69,3.78,3.78s-1.69,3.78-3.78,3.78-3.78-1.69-3.78-3.78h0c0-2.08,1.69-3.77,3.78-3.78Z"/></g><rect class="cls-1" width="48" height="48"/></g></g></svg>