<?xml version="1.0" encoding="UTF-8"?><svg id="Capa_2" xmlns="http://www.w3.org/2000/svg" viewBox="0 0 48 48"><defs><style>.cls-1{fill:none;}.cls-2{fill:#1f2560;}</style></defs><g id="Capa_1-2"><g><g id="Grupo_12" transform="translate(0 0)"><path id="Trazado_13" class="cls-2" d="M38.83,20.18c-.06-.15-.15-.29-.27-.4l-6.59-6.54,2.01-3.98c.3-.6,.06-1.33-.54-1.63l-.04-.02c-1.86-.86-4-.85-5.85,.01-1.06,.53-1.95,1.32-2.59,2.31-2.58,.2-5.07,1.08-7.19,2.56-5.74,4.08-7.93,12.6-5.63,21.48-1.98,.62-3.33,2.45-3.34,4.52v1.32c0,.67,.54,1.22,1.22,1.22h24.33c.67,0,1.22-.54,1.22-1.21h0v-1.32c0-2.12-1.42-3.99-3.47-4.56,.19-1.42,.03-2.86-.46-4.2-.61-1.4-1.51-2.65-2.64-3.68-.94-.79-1.65-1.83-2.05-2.99,1.72,.98,3.7,1.4,5.66,1.21,1.15,.72,2.52,1,3.86,.79,.9-.14,1.71-.63,2.25-1.37,.6-1.09,.65-2.4,.12-3.52Zm-5.7,18.32v.1H11.22v-.1c0-1.29,1.04-2.33,2.33-2.33H30.79c1.29,0,2.33,1.04,2.33,2.33h.01Zm3.57-16.15c-.18,.19-.41,.31-.67,.34-.86,.1-1.73-.13-2.43-.66-.25-.18-.56-.25-.87-.21-.68,.1-1.38,.1-2.06,0-1.56-.25-3.01-.97-4.15-2.06-.49-.46-1.26-.44-1.72,.05-.16,.17-.27,.39-.31,.62-.18,.94-.18,1.9,0,2.84,.43,1.76,1.39,3.33,2.77,4.51,.89,.79,1.61,1.77,2.1,2.85,.36,.99,.47,2.06,.32,3.11H14.58c-2.19-8.04-.39-15.7,4.6-19.25,1.94-1.33,4.22-2.08,6.58-2.16,.43-.03,.81-.27,1.01-.66,.41-.8,1.06-1.45,1.86-1.85,.79-.38,1.67-.5,2.53-.35l-1.75,3.48c-.24,.47-.14,1.04,.23,1.41l7.02,6.97c.14,.33,.15,.7,.03,1.03h.01Z"/><path id="Trazado_14" class="cls-2" d="M29.49,16.7h-.01c-.68,0-1.22,.55-1.22,1.23s.55,1.22,1.23,1.22c.68,0,1.22-.55,1.22-1.23,0-.67-.55-1.21-1.22-1.22Z"/></g><rect class="cls-1" width="48" height="48"/></g></g></svg>