<?xml version="1.0" encoding="UTF-8"?><svg id="Capa_2" xmlns="http://www.w3.org/2000/svg" viewBox="0 0 48 48"><defs><style>.cls-1{fill:none;}.cls-2{fill:#1f2560;}</style></defs><g id="Capa_1-2"><g><g id="Grupo_38" transform="translate(0)"><g id="Grupo_37"><path id="Trazado_29" class="cls-2" d="M17.24,29.26c-.07-.21-.26-.35-.47-.35h-2.49c-4.4,0-7.96,3.56-7.96,7.96h0v3.53c0,.65,.53,1.18,1.18,1.18h13.06c.28,0,.5-.24,.5-.52,0-.05,0-.1-.03-.15l-3.79-11.66Zm16.49-.35h-2.48c-.22,0-.41,.14-.48,.35l-3.8,11.66c-.09,.27,.06,.55,.32,.64,.05,.02,.1,.02,.15,.03h13.06c.65,0,1.18-.53,1.18-1.18v-3.53c0-4.39-3.56-7.96-7.95-7.96h0Zm.04-12.72c0-5.39-4.37-9.76-9.76-9.77-5.39,0-9.76,4.37-9.77,9.76,0,5.39,4.37,9.77,9.76,9.77h0c5.39,0,9.75-4.38,9.75-9.76h0Z"/><path id="Trazado_30" class="cls-2" d="M24,29.18c-.84,0-1.52,.68-1.52,1.52v8.13c0,.84,.67,1.53,1.51,1.54s1.53-.67,1.54-1.51v-8.16c0-.84-.68-1.52-1.52-1.52Z"/></g></g><rect class="cls-1" width="48" height="48"/></g></g></svg>