<?xml version="1.0" encoding="UTF-8"?><svg id="Capa_2" xmlns="http://www.w3.org/2000/svg" viewBox="0 0 48 48"><defs><style>.cls-1{fill:none;}.cls-2{fill:#1f2560;}</style></defs><g id="Capa_1-2"><g><path id="Trazado_43" class="cls-2" d="M36.39,32.04l-1.19-2.38c-.72-1.44-1.09-3.02-1.09-4.63v-4.83c0-5.08-3.79-9.37-8.84-10.01v-2.61c0-.7-.57-1.26-1.26-1.26s-1.26,.57-1.26,1.26v2.61c-5.04,.64-8.83,4.93-8.84,10.01v4.83c0,1.61-.38,3.19-1.09,4.63l-1.19,2.38c-.78,1.56-.15,3.46,1.42,4.24,.44,.22,.92,.33,1.41,.33h3.3c.74,3.45,4.13,5.64,7.57,4.91,2.46-.53,4.38-2.45,4.91-4.91h3.3c1.75,0,3.16-1.42,3.16-3.16,0-.49-.11-.97-.33-1.41h.01Zm-12.38,7.1c-1.67,.09-3.19-.94-3.71-2.52h7.42c-.52,1.58-2.04,2.62-3.71,2.52h0Zm10.09-5.35c-.12,.19-.32,.3-.54,.3H14.46c-.35,0-.64-.29-.64-.64,0-.1,.02-.2,.07-.28l1.19-2.38c.89-1.79,1.36-3.76,1.36-5.75v-4.83c0-4.18,3.39-7.57,7.57-7.57s7.57,3.39,7.57,7.57h0v4.83c0,2,.47,3.97,1.36,5.75l1.19,2.38c.1,.2,.09,.44-.03,.62Z"/><rect class="cls-1" width="48" height="48"/></g></g></svg>