<?xml version="1.0" encoding="utf-8"?>
<!-- Generator: Adobe Illustrator 26.3.1, SVG Export Plug-In . SVG Version: 6.00 Build 0)  -->
<svg version="1.1" id="Capa_2_00000025422086119648810300000009186150878805309090_"
	 xmlns="http://www.w3.org/2000/svg" xmlns:xlink="http://www.w3.org/1999/xlink" x="0px" y="0px" viewBox="0 0 48 48"
	 style="enable-background:new 0 0 48 48;" xml:space="preserve">
<style type="text/css">
	.st0{fill:#1F2560;}
	.st1{fill:none;}
</style>
<g id="Capa_1-2">
	<g>
		<g id="Grupo_251" transform="translate(-328.141 -340.053)">
			<path id="Trazado_762" class="st0" d="M356.5,376.8c-0.5,0-0.9,0.3-1.1,0.7c-1.2,1.8-3.7,2.3-5.5,1.1c-0.4-0.3-0.8-0.7-1.1-1.1
				c-0.3-0.6-1-0.8-1.6-0.5c-0.6,0.3-0.8,1-0.5,1.6c0,0,0,0,0,0.1c1.8,3,5.7,4,8.7,2.2c0.9-0.5,1.6-1.3,2.1-2.2
				c0.3-0.6,0.1-1.3-0.5-1.7C356.9,376.9,356.7,376.8,356.5,376.8z"/>
			<path id="Trazado_763" class="st0" d="M364.1,371.2l-1.1-2.3c-0.7-1.4-1-2.9-1-4.5v-4.7c0-4.9-3.7-9.1-8.5-9.7v-2.5
				c0-0.7-0.6-1.2-1.2-1.2c-0.7,0-1.2,0.6-1.2,1.2v2.5c-4.9,0.6-8.5,4.8-8.5,9.7v4.7c0,1.5-0.4,3.1-1.1,4.5l-1.1,2.3
				c-0.8,1.5-0.1,3.3,1.4,4.1c0.4,0.2,0.9,0.3,1.4,0.3h18.4c1.7,0,3-1.4,3-3.1C364.4,372.1,364.3,371.6,364.1,371.2z"/>
		</g>
		<rect class="st1" width="48" height="48"/>
	</g>
</g>
</svg>
