<?xml version="1.0" encoding="UTF-8"?><svg id="Capa_2" xmlns="http://www.w3.org/2000/svg" viewBox="0 0 48 48"><defs><style>.cls-1{fill:none;}.cls-2{fill:#1f2560;}</style></defs><g id="Capa_1-2"><g><path id="Trazado_9" class="cls-2" d="M38.23,27.41l-10.77-13.85c-.2-.26-.49-.42-.81-.46l-9.05-1.13c-2.27-.28-4.33,1.32-4.61,3.59h0l-.13,1.01s-.05-.05-.07-.07c-1.82-2.34-2.04-5.35-.48-6.56,1.35-.8,3.05-.68,4.27,.29,.57,.35,1.32,.18,1.67-.39s.18-1.32-.39-1.67c-2.08-1.54-4.9-1.59-7.05-.15-2.65,2.06-2.62,6.53,.05,9.97,.47,.6,1.01,1.14,1.61,1.61l-.63,5.01c-.04,.32,.05,.64,.25,.9l10.77,13.85c.71,.91,1.75,1.5,2.89,1.64,.18,.02,.37,.03,.55,.03,.96,0,1.9-.32,2.66-.91l8.5-6.61c1.89-1.47,2.23-4.2,.76-6.09h0Zm-1.53,2.91c-.06,.5-.32,.96-.72,1.27l-8.5,6.61c-.83,.65-2.03,.5-2.68-.34l-10.46-13.45,.43-3.44c.25,.11,.51,.21,.77,.3,.6,.18,1.22,.27,1.85,.28,1.14,.02,2.25-.35,3.15-1.05,.53-.41,.63-1.18,.21-1.71-.41-.53-1.18-.63-1.71-.21-.83,.57-1.89,.7-2.83,.36-.39-.12-.77-.28-1.12-.48l.32-2.59c.12-.93,.97-1.59,1.9-1.48h0l8.55,1.07,10.46,13.45c.31,.4,.45,.9,.39,1.4h0Z"/><rect class="cls-1" width="48" height="48"/></g></g></svg>