<?xml version="1.0" encoding="UTF-8"?><svg id="Capa_2" xmlns="http://www.w3.org/2000/svg" viewBox="0 0 48 48"><defs><style>.cls-1{fill:none;}.cls-2{fill:#1f2560;}</style></defs><g id="Capa_1-2"><g><g><path class="cls-2" d="M12.04,30.45c.46,.47,1.22,.47,1.68,0l5.19-5.19-1.68-1.68-5.19,5.18c-.23,.22-.35,.52-.35,.84,0,.32,.12,.62,.35,.84Z"/><path class="cls-2" d="M29.68,23.64l5.61-4.86,1.01,1.01c.24,.24,.64,.24,.89,0,.09-.09,.16-.22,.18-.35l.59-4.12c.04-.34-.2-.66-.54-.71-.06,0-.11,0-.17,0l-.21,.03h0l-3.9,.55c-.17,.02-.31,.11-.41,.24s-.14,.3-.12,.46c.02,.13,.08,.26,.18,.35l.83,.83-4.65,4.03-.12-.12-3.67-3.67c-.46-.46-1.22-.46-1.68,0l-.82,.82,5.4,5.44c.44,.44,1.15,.46,1.62,.06Z"/><path class="cls-2" d="M40.49,34.72l-.02-.19v.19H8.69v-6.58l8.43-8.41,.13,.13,11.85,11.85c.43,.43,1.14,.46,1.61,.07l5.96-5.04c.51-.42,.58-1.17,.16-1.67-.42-.5-1.17-.58-1.67-.16l-5.14,4.35-12.05-12.05c-.22-.22-.52-.35-.84-.35s-.61,.12-.84,.35l-7.59,7.59V12.09c0-.32-.12-.61-.35-.84-.22-.22-.52-.35-.84-.35h0c-.65,0-1.18,.53-1.18,1.18v23.82c0,.65,.53,1.19,1.19,1.19H40.49c.32,0,.61-.12,.84-.35,.23-.22,.35-.52,.35-.84,0-.65-.53-1.19-1.18-1.19Z"/></g><rect class="cls-1" width="48" height="48"/></g></g></svg>