<?xml version="1.0" encoding="UTF-8"?><svg id="Capa_2" xmlns="http://www.w3.org/2000/svg" viewBox="0 0 48 48"><defs><style>.cls-1{fill:none;}.cls-2{fill:#1f2560;}</style></defs><g id="Capa_1-2"><g><g id="Grupo_41"><path id="Trazado_31" class="cls-2" d="M39.53,9.54H8.47c-1.18,0-2.14,.96-2.14,2.14h0v24.64c0,1.18,.96,2.14,2.14,2.14h31.06c1.18,0,2.14-.96,2.14-2.14h0V11.68c0-1.18-.96-2.14-2.14-2.14h0ZM15.58,19.28c1.71,0,3.1,1.39,3.1,3.1s-1.39,3.1-3.1,3.1-3.1-1.39-3.1-3.1h0c0-1.71,1.38-3.1,3.1-3.1h0Zm5.21,12.09c.01,.41-.3,.75-.71,.77H11.08c-.41-.02-.73-.36-.71-.77v-.73c-.05-1.34,1-2.48,2.34-2.53h5.73c1.34,.05,2.39,1.18,2.34,2.53v.73Zm14.46-.66h-9.64c-.74,0-1.34-.6-1.34-1.34s.6-1.34,1.34-1.34h9.64c.74,0,1.34,.6,1.34,1.34s-.6,1.34-1.34,1.34Zm0-5.36h-9.64c-.74,0-1.34-.6-1.34-1.34s.6-1.34,1.34-1.34h9.64c.74,0,1.34,.6,1.34,1.34s-.6,1.34-1.34,1.34Z"/></g><rect class="cls-1" width="48" height="48"/></g></g></svg>