<?xml version="1.0" encoding="UTF-8"?><svg id="Capa_2" xmlns="http://www.w3.org/2000/svg" viewBox="0 0 48 48"><defs><style>.cls-1{fill:none;}.cls-2{fill:#1f2560;}</style></defs><g id="Capa_1-2"><g><path class="cls-2" d="M31.44,6.33h-14.88c-2.05,0-3.72,1.67-3.72,3.72v27.9c0,2.05,1.67,3.72,3.72,3.72h14.88c2.05,0,3.72-1.67,3.72-3.72V10.05c0-2.05-1.67-3.72-3.72-3.72Zm-6.51,33.02h-1.86c-1.03,0-1.86-.83-1.86-1.86s.83-1.86,1.86-1.86h1.86c1.03,0,1.86,.83,1.86,1.86s-.83,1.86-1.86,1.86Zm6.51-6.98c0,.51-.42,.93-.93,.93h-13.02c-.51,0-.93-.42-.93-.93V12.84c0-.51,.42-.93,.93-.93h13.95v20.46Z"/><rect class="cls-1" width="48" height="48"/></g></g></svg>