<?xml version="1.0" encoding="UTF-8"?><svg id="Capa_2" xmlns="http://www.w3.org/2000/svg" viewBox="0 0 48 48"><defs><style>.cls-1{fill:none;}.cls-2{fill:#1f2560;}</style></defs><g id="Capa_1-2"><g><g id="Grupo_386" transform="translate(-326.551 -722.32)"><g id="Grupo_386-2" transform="translate(326.551 722.32)"><path id="Trazado_830" class="cls-2" d="M35.52,26.2l-2.19-2.58c-1.42-1.66-1.2-3.02-1.14-5.19,.01-.44-.28-.84-.7-.96l-2.54-.73c-.5-.15-1.03,.14-1.19,.64v.04c-.33,1.89-1.86,3.35-3.76,3.58-1.9-.21-3.43-1.65-3.75-3.53-.13-.51-.65-.82-1.16-.69h-.02l-2.57,.69c-.44,.12-.73,.52-.72,.97,.36,1.82-.05,3.7-1.14,5.2l-2.21,2.61c-1.02,1.2-1.58,2.73-1.58,4.3v5.48c0,1.52,1.23,2.75,2.75,2.76h20.71c1.56,0,2.82-1.26,2.82-2.82v-5.34c0-1.62-.57-3.19-1.63-4.43Zm-11.52,7.73c-2.62,0-4.75-2.13-4.75-4.75s2.13-4.75,4.75-4.75,4.75,2.13,4.75,4.75h0c0,2.62-2.12,4.75-4.74,4.75h0Z"/><path id="Trazado_831" class="cls-2" d="M41.13,14.25c-10.42-6.72-23.82-6.72-34.24,0-1.5,1.78-1.85,4.26-.9,6.39,.8,1.55,1.74,2.21,3.41,1.69l2.8-1.15c1.1-.28,1.38-.99,1.15-2.24-.51-2.73,.24-3.61,2.71-4.23,5.26-.87,10.62-.87,15.87,0,2.46,.62,3.22,1.5,2.71,4.23-.23,1.25,.05,1.95,1.15,2.24l2.8,1.15c1.68,.51,2.62-.15,3.41-1.69,.95-2.12,.61-4.6-.88-6.39Z"/></g></g><rect class="cls-1" width="48" height="48"/></g></g></svg>